<svg id="visual" viewBox="0 0 900 600" width="900" height="600" xmlns="http://www.w3.org/2000/svg" xmlns:xlink="http://www.w3.org/1999/xlink" version="1.1"><rect x="0" y="0" width="900" height="600" fill="#303741"></rect><path d="M0 398L16.7 388C33.3 378 66.7 358 100 361.8C133.3 365.7 166.7 393.3 200 389.5C233.3 385.7 266.7 350.3 300 348.7C333.3 347 366.7 379 400 384.3C433.3 389.7 466.7 368.3 500 363.3C533.3 358.3 566.7 369.7 600 364.2C633.3 358.7 666.7 336.3 700 328C733.3 319.7 766.7 325.3 800 338.7C833.3 352 866.7 373 883.3 383.5L900 394L900 601L883.3 601C866.7 601 833.3 601 800 601C766.7 601 733.3 601 700 601C666.7 601 633.3 601 600 601C566.7 601 533.3 601 500 601C466.7 601 433.3 601 400 601C366.7 601 333.3 601 300 601C266.7 601 233.3 601 200 601C166.7 601 133.3 601 100 601C66.7 601 33.3 601 16.7 601L0 601Z" fill="#f1c40f"></path><path d="M0 402L16.7 400.2C33.3 398.3 66.7 394.7 100 401.7C133.3 408.7 166.7 426.3 200 436.7C233.3 447 266.7 450 300 452.5C333.3 455 366.7 457 400 444.5C433.3 432 466.7 405 500 392.2C533.3 379.3 566.7 380.7 600 390.2C633.3 399.7 666.7 417.3 700 420.8C733.3 424.3 766.7 413.7 800 404.5C833.3 395.3 866.7 387.7 883.3 383.8L900 380L900 601L883.3 601C866.7 601 833.3 601 800 601C766.7 601 733.3 601 700 601C666.7 601 633.3 601 600 601C566.7 601 533.3 601 500 601C466.7 601 433.3 601 400 601C366.7 601 333.3 601 300 601C266.7 601 233.3 601 200 601C166.7 601 133.3 601 100 601C66.7 601 33.3 601 16.7 601L0 601Z" fill="#f3b70b"></path><path d="M0 519L16.7 516.8C33.3 514.7 66.7 510.3 100 498.2C133.3 486 166.7 466 200 457.5C233.3 449 266.7 452 300 459.5C333.3 467 366.7 479 400 490.2C433.3 501.3 466.7 511.7 500 514C533.3 516.3 566.7 510.7 600 507.8C633.3 505 666.7 505 700 507.8C733.3 510.7 766.7 516.3 800 520.7C833.3 525 866.7 528 883.3 529.5L900 531L900 601L883.3 601C866.7 601 833.3 601 800 601C766.7 601 733.3 601 700 601C666.7 601 633.3 601 600 601C566.7 601 533.3 601 500 601C466.7 601 433.3 601 400 601C366.7 601 333.3 601 300 601C266.7 601 233.3 601 200 601C166.7 601 133.3 601 100 601C66.7 601 33.3 601 16.7 601L0 601Z" fill="#f3a90d"></path><path d="M0 543L16.7 547.8C33.3 552.7 66.7 562.3 100 569.3C133.3 576.3 166.7 580.7 200 568.7C233.3 556.7 266.7 528.3 300 520.8C333.3 513.3 366.7 526.7 400 526.5C433.3 526.3 466.7 512.7 500 517.7C533.3 522.7 566.7 546.3 600 551.8C633.3 557.3 666.7 544.7 700 535.7C733.3 526.7 766.7 521.3 800 527.2C833.3 533 866.7 550 883.3 558.5L900 567L900 601L883.3 601C866.7 601 833.3 601 800 601C766.7 601 733.3 601 700 601C666.7 601 633.3 601 600 601C566.7 601 533.3 601 500 601C466.7 601 433.3 601 400 601C366.7 601 333.3 601 300 601C266.7 601 233.3 601 200 601C166.7 601 133.3 601 100 601C66.7 601 33.3 601 16.7 601L0 601Z" fill="#f39c12"></path></svg>