<svg width="900" height="280" xmlns="http://www.w3.org/2000/svg">
  <g>
   <rect fill="#303741" height="600" width="900" y="-319.5" x="0"/>
   <path fill="#f1c40f" d="m0,78.5l16.7,-10c16.6,-10 50,-30 83.3,-26.2c33.3,3.9 66.7,31.5 100,27.7c33.3,-3.8 66.7,-39.2 100,-40.8c33.3,-1.7 66.7,30.3 100,35.6c33.3,5.4 66.7,-16 100,-21c33.3,-5 66.7,6.4 100,0.9c33.3,-5.5 66.7,-27.9 100,-36.2c33.3,-8.3 66.7,-2.7 100,10.7c33.3,13.3 66.7,34.3 83.3,44.8l16.7,10.5l0,207l-16.7,0c-16.6,0 -50,0 -83.3,0c-33.3,0 -66.7,0 -100,0c-33.3,0 -66.7,0 -100,0c-33.3,0 -66.7,0 -100,0c-33.3,0 -66.7,0 -100,0c-33.3,0 -66.7,0 -100,0c-33.3,0 -66.7,0 -100,0c-33.3,0 -66.7,0 -100,0c-33.3,0 -66.7,0 -83.3,0l-16.7,0l0,-203z"/>
   <path fill="#f3b70b" d="m0,82.5l16.7,-1.8c16.6,-1.9 50,-5.5 83.3,1.5c33.3,7 66.7,24.6 100,35c33.3,10.3 66.7,13.3 100,15.8c33.3,2.5 66.7,4.5 100,-8c33.3,-12.5 66.7,-39.5 100,-52.3c33.3,-12.9 66.7,-11.5 100,-2c33.3,9.5 66.7,27.1 100,30.6c33.3,3.5 66.7,-7.1 100,-16.3c33.3,-9.2 66.7,-16.8 83.3,-20.7l16.7,-3.8l0,221l-16.7,0c-16.6,0 -50,0 -83.3,0c-33.3,0 -66.7,0 -100,0c-33.3,0 -66.7,0 -100,0c-33.3,0 -66.7,0 -100,0c-33.3,0 -66.7,0 -100,0c-33.3,0 -66.7,0 -100,0c-33.3,0 -66.7,0 -100,0c-33.3,0 -66.7,0 -100,0c-33.3,0 -66.7,0 -83.3,0l-16.7,0l0,-199z"/>
   <path fill="#f3a90d" d="m0,199.5l16.7,-2.2c16.6,-2.1 50,-6.5 83.3,-18.6c33.3,-12.2 66.7,-32.2 100,-40.7c33.3,-8.5 66.7,-5.5 100,2c33.3,7.5 66.7,19.5 100,30.7c33.3,11.1 66.7,21.5 100,23.8c33.3,2.3 66.7,-3.3 100,-6.2c33.3,-2.8 66.7,-2.8 100,0c33.3,2.9 66.7,8.5 100,12.9c33.3,4.3 66.7,7.3 83.3,8.8l16.7,1.5l0,70l-16.7,0c-16.6,0 -50,0 -83.3,0c-33.3,0 -66.7,0 -100,0c-33.3,0 -66.7,0 -100,0c-33.3,0 -66.7,0 -100,0c-33.3,0 -66.7,0 -100,0c-33.3,0 -66.7,0 -100,0c-33.3,0 -66.7,0 -100,0c-33.3,0 -66.7,0 -100,0c-33.3,0 -66.7,0 -83.3,0l-16.7,0l0,-82z"/>
   <path fill="#f39c12" d="m0,223.5l16.7,4.8c16.6,4.9 50,14.5 83.3,21.5c33.3,7 66.7,11.4 100,-0.6c33.3,-12 66.7,-40.4 100,-47.9c33.3,-7.5 66.7,5.9 100,5.7c33.3,-0.2 66.7,-13.8 100,-8.8c33.3,5 66.7,28.6 100,34.1c33.3,5.5 66.7,-7.1 100,-16.1c33.3,-9 66.7,-14.4 100,-8.5c33.3,5.8 66.7,22.8 83.3,31.3l16.7,8.5l0,34l-16.7,0c-16.6,0 -50,0 -83.3,0c-33.3,0 -66.7,0 -100,0c-33.3,0 -66.7,0 -100,0c-33.3,0 -66.7,0 -100,0c-33.3,0 -66.7,0 -100,0c-33.3,0 -66.7,0 -100,0c-33.3,0 -66.7,0 -100,0c-33.3,0 -66.7,0 -100,0c-33.3,0 -66.7,0 -83.3,0l-16.7,0l0,-58z"/>
  </g>
</svg>